# xmcd
#
# Track frame offsets:
#	150
#	18372
#	39460
#	59429
#	77162
#	95942
#	116360
#	132593
#	146878
#	164866
#	187054
#	204531
#	223362
#	241422
#	257043
#	272593
#	287838
#	304210
#	322800
#	336035
#
# Disc length: 4716 seconds
#
# Revision: 0
# Processed by: cddbd v1.5.2PL0 Copyright (c) Steve Scherf et al.
# Submitted via: audiograbber 1.83.01
#
DISCID=42126a14
DTITLE=Various Artist - I Love 90s CD3
DYEAR=1900
DGENRE=Pop
TTITLE0=Fatboy Slim - Rockafeller Skank
TTITLE1=The Prodigy - Firestarter
TTITLE2=Underworld - Born Slippy (Nuxx)
TTITLE3=The Chemical Brothers - Hey Boy Hey Girl
TTITLE4=Faithless - Insomnia (Monster Mix)
TTITLE5=Shamen - Ebeneezer Goode
TTITLE6=N-Joi - Anthem
TTITLE7=Bizarre Inc - Playing With Knives (Quaddrant Mix)
TTITLE8=Baby D - Let Me Be Your Fantasy
TTITLE9=Wildchild - Renegade Master (Fatboy Slim Old Skool Mix)
TTITLE10=Cornershop - Brimful Of Asha (Norman Cook Remix)
TTITLE11=Mr Oizo - Flat Beat
TTITLE12=Run - DMC vs Jason Nevins
TTITLE13=Mousse T vs Hot 'n' Juicy - Horny '98
TTITLE14=Madison Avenue - Don't Call Me Baby (Original 2000 Mix)
TTITLE15=Wamdue Project - King Of My Castle (Roy Malone Kings Mix Edit)
TTITLE16=Phats and Small - Turn Around
TTITLE17=Olive - You're Not Alone
TTITLE18=DJ Jean - The Launch
TTITLE19=N-Trance - Set You Free
EXTD=(p)2016 Ministry Of Sound
EXTT0=
EXTT1=
EXTT2=
EXTT3=
EXTT4=
EXTT5=
EXTT6=
EXTT7=
EXTT8=
EXTT9=
EXTT10=
EXTT11=
EXTT12=
EXTT13=
EXTT14=
EXTT15=
EXTT16=
EXTT17=
EXTT18=
EXTT19=
PLAYORDER=
